<?xml version="1.0" encoding="UTF-8"?>
<svg width="200px" height="24px" viewBox="0 0 200 24" version="1.1" xmlns="http://www.w3.org/2000/svg" xmlns:xlink="http://www.w3.org/1999/xlink">
    <title>编组 18</title>
    <g id="页面-1" stroke="none" stroke-width="1" fill="none" fill-rule="evenodd">
        <g id="编组-18" transform="translate(-0.000100, -0.000100)">
            <path d="M60.8543556,3.11735525 L66.8501382,3.11735525 L66.8501382,18.2376835 L60.8543556,18.2376835 L60.8543556,15.9173145 C59.3250083,17.4472408 57.1088735,18.211625 54.2071093,18.211625 C51.8601027,18.211625 50.0221063,17.9556721 48.6931203,17.4420291 C47.3635553,16.9295443 46.3768049,15.987383 45.7340273,14.613808 C45.2649735,13.6235831 44.9516918,12.3982522 44.7959196,10.9378153 C44.6389892,9.47795751 44.5608136,7.27050887 44.5608136,4.31662758 L44.5868721,3.11735525 L50.5832338,3.11735525 L50.5832338,8.09627534 L50.5832338,8.17445098 C50.5832338,8.60933921 50.5872873,8.93941416 50.5959735,9.16525492 C50.6046597,9.39109568 50.6388253,9.71248445 50.7002077,10.1300003 C50.761011,10.5469371 50.8438192,10.8729585 50.9480534,11.1074854 C51.0522876,11.3425915 51.2126925,11.611284 51.4304261,11.9153005 C51.6475807,12.2193169 51.9081662,12.4503693 52.2121826,12.6061415 C52.516199,12.7630719 52.9070772,12.9020508 53.3853964,13.0230783 C53.8631364,13.145264 54.4063124,13.2060672 55.0149243,13.2060672 C57.1523044,13.2060672 59.0985885,12.4156246 60.8543556,10.8335811 L60.8543556,3.11735525 Z" id="Fill-14" fill="#040000"></path>
            <path d="M88.0972945,6.21971237 C88.5142313,7.15839921 88.7707632,8.36114601 88.8663112,9.82969001 C88.9618593,11.2988131 89.0093437,13.7014113 89.0093437,17.0386428 L89.0093437,18.2373361 L82.9353855,18.2373361 L82.9353855,13.2578369 L82.9353855,13.02331 L82.9353855,12.2542932 C82.9353855,12.0718834 82.9220667,11.8066653 82.8960081,11.459797 C82.8699496,11.1117706 82.8352049,10.8384454 82.791774,10.6380841 C82.748343,10.4383019 82.6788536,10.1864026 82.5833056,9.88180711 C82.4877575,9.57836978 82.3748372,9.33457758 82.2445444,9.15158866 C82.1142517,8.97033697 81.9486351,8.77402924 81.749432,8.56556085 C81.5490707,8.35709246 81.3191764,8.19205498 81.0585909,8.06986934 C80.7980054,7.94884186 80.4847238,7.84866121 80.1199041,7.77106465 C79.7550844,7.69173084 79.3549409,7.65351164 78.9206317,7.65351164 C77.8082212,7.65351164 76.9170189,7.81391648 76.2487619,8.13530525 C75.5793467,8.4572731 74.9579951,8.91300817 74.384707,9.50366861 L74.384707,18.2373361 L68.2580526,18.2373361 L68.2580526,3.14364543 L74.384707,3.14364543 L74.384707,5.22832935 C74.9406227,4.82934401 75.3702992,4.53806734 75.6748947,4.35507842 C75.9789111,4.17324766 76.4051132,3.95609308 76.9523427,3.70419378 C77.4995722,3.45171539 78.0948653,3.2733591 78.7382219,3.1691249 C79.3809994,3.06489071 80.1199041,3.01277361 80.9543567,3.01277361 C81.7708579,3.01277361 82.4923902,3.04809742 83.1177954,3.11758689 C83.7432005,3.18649727 84.3992969,3.32489712 85.0860844,3.53394459 C85.7722929,3.74241298 86.3722186,4.07306701 86.8847034,4.52474853 C87.3971882,4.97700912 87.8013852,5.54161101 88.0972945,6.21971237" id="Fill-15" fill="#040000"></path>
            <path d="M106.815034,11.9022133 L106.815034,9.84300882 C106.25854,8.34840627 104.198756,7.60081546 100.636842,7.60081546 L100.532029,7.60081546 L99.998118,7.60081546 C99.8672462,7.60081546 99.667464,7.61413427 99.3981923,7.64019282 C99.1289206,7.66625137 98.9030799,7.70504965 98.7200909,7.75716675 C98.5382602,7.80928385 98.3205265,7.88340594 98.0686272,7.97895396 C97.8167279,8.07508105 97.6082595,8.20074116 97.442643,8.35709246 C97.2776055,8.51344375 97.1172006,8.69585359 96.9608493,8.90490106 C96.8044981,9.11336945 96.686945,9.37395494 96.6087694,9.68665753 C96.5305937,9.99936012 96.4912164,10.3468074 96.4912164,10.7295786 C96.4912164,12.7980483 97.9945051,13.8322831 101.001662,13.8322831 C102.68736,13.8322831 103.951489,13.7060439 104.794628,13.4535655 C105.637188,13.2022453 106.310657,12.6851279 106.815034,11.9022133 L106.815034,11.9022133 Z M106.815034,0.0171986423 L112.862934,0.0171986423 L112.862934,18.2373361 L106.815034,18.2373361 L106.815034,16.6211269 C105.163501,17.7856545 102.826339,18.3682079 99.8023893,18.3682079 C99.0721709,18.3682079 98.4114419,18.3462029 97.8207815,18.302772 C97.230121,18.258762 96.5867644,18.1724792 95.8918698,18.0421865 C95.196396,17.9113147 94.5796771,17.7335374 94.0405546,17.5076967 C93.5020113,17.2818559 92.9721541,16.9691533 92.4504041,16.5690098 C91.9292331,16.1700245 91.4989775,15.7044451 91.1602164,15.1745879 C90.8214552,14.6447308 90.5475509,13.9840018 90.3390825,13.1929801 C90.1306141,12.4019583 90.0263799,11.5200212 90.0263799,10.5471687 C90.0263799,9.33052403 90.291019,8.24011853 90.8214552,7.27537314 C91.3513124,6.31004867 92.068212,5.53755746 92.9721541,4.95500412 C93.8755172,4.37302987 94.8964332,3.93003453 96.0354813,3.62543905 C97.1733713,3.32142265 98.3853834,3.1691249 99.6720966,3.1691249 C102.313854,3.1691249 104.694448,3.69898207 106.815034,4.75927547 L106.815034,0.0171986423 Z" id="Fill-16" fill="#040000"></path>
            <path d="M124.151208,14.6918678 C125.419391,14.6918678 126.584497,14.5575215 127.644791,14.2882498 C128.704505,14.0183991 129.313117,13.7705533 129.469468,13.5447126 L129.469468,13.2580685 C128.982463,12.806387 127.314137,12.5805463 124.46449,12.5805463 C123.021425,12.5805463 121.987769,12.6627754 121.361785,12.828392 C120.73638,12.9934295 120.423677,13.2493823 120.423677,13.5974087 C120.423677,14.3276272 121.665801,14.6918678 124.151208,14.6918678 M135.882767,18.2636262 L129.886405,18.2636262 C129.886405,17.8293171 129.877719,17.3689494 129.860346,16.8819441 C128.018297,17.9769822 125.889024,18.5242117 123.473686,18.5242117 C122.76084,18.5242117 122.15686,18.5155255 121.661748,18.4981532 C121.166056,18.4807808 120.55397,18.4367708 119.823752,18.3684395 C119.094112,18.298371 118.476814,18.202823 117.973016,18.0812164 C117.468638,17.9596098 116.938202,17.7772 116.382286,17.5334078 C115.82637,17.2901947 115.37411,16.998918 115.026662,16.6601569 C114.679215,16.3208166 114.391992,15.8870866 114.16673,15.3566503 C113.94031,14.8262141 113.82739,14.2401863 113.82739,13.5974087 C113.82739,12.7803285 114.092608,12.072115 114.622465,11.4721893 C115.152901,10.8728427 115.877908,10.3997352 116.799802,10.0517088 C117.720537,9.70368245 118.728713,9.44772959 119.823752,9.28269211 C120.918211,9.11765464 122.100111,9.03426728 123.368872,9.03426728 C125.524204,9.03426728 127.470488,9.35681421 129.208883,9.99901267 C128.860856,8.95667071 128.274249,8.27451581 127.449062,7.95254796 C126.623296,7.63173827 125.315156,7.47075435 123.525224,7.47075435 C122.065366,7.47075435 120.662258,7.57093499 119.31532,7.7707172 C117.968383,7.97107849 117.107872,8.1268507 116.734366,8.23977108 C116.360281,8.35269146 116.043525,8.4528721 115.782939,8.53915485 L114.427316,4.42074596 C117.381776,3.32512875 120.536019,2.77789922 123.890622,2.77789922 C124.620841,2.77789922 125.333108,2.79990422 126.028582,2.84333514 C126.722897,2.88676605 127.549243,2.99100025 128.504723,3.15603772 C129.460203,3.3210752 130.316661,3.54344148 131.072938,3.82139934 C131.828636,4.09935719 132.545535,4.50297516 133.223636,5.03283232 C133.901159,5.56384764 134.396271,6.175934 134.709553,6.87082864 C135.213351,8.01798387 135.53474,9.46510196 135.673719,11.2116038 C135.812698,12.9581057 135.882767,15.3091659 135.882767,18.2636262" id="Fill-17" fill="#040000"></path>
            <path d="M149.803707,3.1433559 C152.271162,3.1433559 154.261456,3.63846832 155.77401,4.62927226 C155.895037,4.69876173 155.965106,4.74219264 155.981899,4.75898593 L153.714226,9.39972395 C153.557875,9.3134412 153.332034,9.20457438 153.036704,9.07370255 C152.740795,8.94398889 152.1843,8.76505352 151.367799,8.53921276 C150.550718,8.31395108 149.777648,8.17439307 149.048009,8.12285506 C148.404652,8.08811032 147.796619,8.12285506 147.222752,8.22651017 C146.649464,8.33074437 146.197204,8.43961119 145.867129,8.55253157 C145.537054,8.66603103 145.167601,8.86523416 144.759351,9.1518782 C144.350521,9.43910132 144.098622,9.63077642 144.003074,9.72574535 C143.907526,9.82129337 143.703111,10.017022 143.390408,10.3123522 L143.390408,18.2376256 L137.31645,18.2376256 L137.31645,3.11729735 L137.759445,3.11729735 L143.390408,3.11729735 L143.390408,5.22861889 C144.502819,3.83882961 146.640778,3.1433559 149.803707,3.1433559" id="Fill-18" fill="#040000"></path>
            <polygon id="Fill-19" fill="#040000" points="163.907752 17.7682243 155.721893 3.29935974 162.786655 3.29935974 167.427393 11.7463831 171.780908 3.29935974 178.975963 3.29935974 168.130974 23.3997662 160.935919 23.3997662"></polygon>
            <polygon id="Fill-20" fill="#040000" points="199.845965 3.29634853 192.308095 3.29634853 188.790191 7.28851823 185.272287 3.29634853 177.657979 3.29634853 184.097336 10.6772877 177.502207 18.2377414 185.114778 18.2377414 188.790191 14.0666363 192.466184 18.2377414 200 18.2377414 193.483046 10.6772877"></polygon>
            <path d="M5.47113712,1.05333832e-12 L-1.3166729e-13,1.05333832e-12 L-1.3166729e-13,10.5623985 C-1.3166729e-13,10.6666327 0.00579078865,11.0123428 0.00694894638,11.0135009 C0.154034978,18.885499 8.91607729,18.8901317 12.2341992,18.8901317 C13.634991,18.8901317 15.0056706,18.7436247 16.3091772,18.4546643 L16.3097562,18.4546643 C17.696071,18.143699 19.2028342,17.5431942 20.2903444,17.0706659 C18.5924851,15.9431993 17.7441346,13.5736086 17.4621232,12.4223998 C16.7035299,12.7518957 15.801325,12.9759992 15.1544939,13.1097664 C15.1446496,13.1115037 15.1348052,13.1109246 15.12554,13.1132409 C14.2100163,13.3159185 13.2377429,13.4189945 12.2341992,13.4189945 C5.47113712,13.4189945 5.47113712,11.97593 5.47113712,10.8166141 L5.47113712,1.05333832e-12 Z" id="Fill-21" fill="#4C84FF"></path>
            <path d="M31.2314025,2.74269123 C29.7379581,2.74269123 28.2815748,2.90888686 26.9022089,3.23606642 C26.8454592,3.24996431 26.7956584,3.27544378 26.7400668,3.29223707 C26.7128501,3.29860694 26.6891079,3.29455339 26.660733,3.30266049 C25.2935278,3.68774794 23.8209303,4.36874468 22.761216,4.89976 C24.5175622,5.93341577 25.4921519,8.25378479 25.8361247,9.3876212 C26.6155649,8.99848021 27.5577262,8.71704788 28.2016619,8.5520104 C29.157142,8.32848596 30.1757417,8.21382835 31.2314025,8.21382835 C37.5068802,8.21382835 37.9944646,10.2058596 37.9944646,10.8162088 C37.9944646,11.5278967 37.9944646,13.4191683 31.2314025,13.4191683 C26.1088709,13.4191683 24.8742747,11.6883015 24.3426803,9.99623309 C24.3368896,9.97828165 24.3264661,9.96264652 24.3206753,9.94527415 C24.3143055,9.92616455 24.3131473,9.90763403 24.3067775,9.88852442 C22.6934637,5.41398203 18.1807021,2.74269123 12.2341413,2.74269123 C9.99715962,2.74269123 8.17653567,2.98011356 6.67845864,3.3709918 L6.67845864,9.17973189 C7.62235719,8.65161197 9.29242064,8.21382835 12.2341413,8.21382835 C15.8800218,8.21382835 18.3387907,9.46695501 19.1593454,11.7438931 C19.1622408,11.7514211 19.1668734,11.7572119 19.1691898,11.7647399 C20.7153303,16.4906026 24.7700405,18.8897263 31.2314025,18.8897263 C41.3432777,18.8897263 43.4656017,14.4997294 43.4656017,10.8162088 C43.4656017,8.38871016 42.2732783,2.74269123 31.2314025,2.74269123" id="Fill-22" fill="#4C84FF"></path>
        </g>
    </g>
</svg>